<?xml version="1.0" encoding="UTF-8" standalone="no"?>
<!-- Created with Inkscape (http://www.inkscape.org/) -->

<svg
   version="1.1"
   id="svg8562"
   xml:space="preserve"
   width="682.66669"
   height="682.66534"
   viewBox="0 0 682.66669 682.66534"
   xmlns="http://www.w3.org/2000/svg"
   xmlns:svg="http://www.w3.org/2000/svg"><defs
     id="defs8566"><clipPath
       clipPathUnits="userSpaceOnUse"
       id="clipPath8576"><path
         d="M 0,511.999 H 512 V 0 H 0 Z"
         id="path8574" /></clipPath></defs><g
     id="g8568"
     transform="matrix(1.3333333,0,0,-1.3333333,0,682.66533)"><g
       id="g8570"><g
         id="g8572"
         clip-path="url(#clipPath8576)"><g
           id="g8578"
           transform="translate(197.6401,121.9639)"><path
             d="M 0,0 8.25,7 V 71.25 C 4.156,76.422 5.7,74.653 1,79.5 h -60.75 l 8.75,37.75 -23.5,28 h -36.25 L -126.75,118 -122,86.75 V 79 h -59 l -4.009,-3.539 V -94.328 c 0,-11.121 9.015,-20.137 20.137,-20.137 H 4.917 l 3.333,5.965 v 68.583 L -34,-46.25 -56.918,-19.502 -31,7 Z"
             style="fill:#ffe02f;fill-opacity:1;fill-rule:nonzero;stroke:none"
             id="path8580" /></g><g
           id="g8582"
           transform="translate(71.4936,18.2256)"><path
             d="m 0,0 v 182.738 h -54.854 l -4.009,-3.539 V 9.41 c 0,-11.121 9.016,-20.137 20.137,-20.137 H 6.667 C 2.728,-8.754 0,-4.685 0,0"
             style="fill:#fbc700;fill-opacity:1;fill-rule:nonzero;stroke:none"
             id="path8584" /></g><g
           id="g8586"
           transform="translate(499.1142,333.065)"><path
             d="m 0,0 -45.473,156.898 c -3.095,10.683 -14.264,16.832 -24.946,13.736 l -153.682,-44.54 c -5.19,-1.504 -8.177,-6.929 -6.673,-12.119 l 14.721,-50.794 c 1.082,-3.733 5.194,-5.641 8.764,-4.105 2.484,1.069 4.898,2.311 7.227,3.723 l 9.929,6.02 c 17.77,10.775 40.923,1.746 46.708,-18.214 5.785,-19.96 -8.952,-39.97 -29.729,-40.367 l -11.611,-0.222 c -2.721,-0.053 -5.427,-0.294 -8.097,-0.719 -3.839,-0.611 -6.293,-4.422 -5.211,-8.155 l 15.654,-54.011 c 0.989,-3.413 4.557,-5.377 7.969,-4.388 l 54.012,15.654 c 3.733,1.082 7.544,-1.372 8.155,-5.211 0.425,-2.67 0.666,-5.376 0.719,-8.098 l 0.221,-11.61 c 0.398,-20.777 20.408,-35.514 40.367,-29.728 h 0.001 c 19.959,5.784 28.988,28.936 18.215,46.706 l -6.021,9.93 c -1.411,2.328 -2.655,4.743 -3.723,7.227 -1.537,3.57 0.371,7.682 4.105,8.763 L -4.388,-7.97 C -0.976,-6.98 0.989,-3.413 0,0"
             style="fill:#73d578;fill-opacity:1;fill-rule:nonzero;stroke:none"
             id="path8588" /></g><g
           id="g8590"
           transform="translate(329.4189,406.1963)"><path
             d="m 0,0 c -0.447,0.599 -0.802,1.283 -1.024,2.05 l -14.721,52.794 c -1.115,3.845 0.241,7.817 3.128,10.23 L -54.406,52.963 c -5.189,-1.504 -8.177,-6.93 -6.673,-12.119 L -46.357,-9.95 c 1.081,-3.734 5.192,-5.642 8.763,-4.105 2.484,1.068 4.899,2.311 7.227,3.722 l 9.93,6.021 C -13.972,-0.392 -6.795,0.896 0,0"
             style="fill:#00c63a;fill-opacity:1;fill-rule:nonzero;stroke:none"
             id="path8592" /></g><g
           id="g8594"
           transform="translate(363.0283,292.1963)"><path
             d="m 0,0 -16.653,56.011 c -0.293,1.009 -0.32,2.022 -0.138,2.978 -5.357,-4.74 -12.378,-7.731 -20.277,-7.883 l -11.611,-0.222 c -2.721,-0.052 -5.427,-0.293 -8.097,-0.718 -3.839,-0.611 -6.293,-4.422 -5.211,-8.155 L -46.333,-12 c 0.989,-3.413 4.557,-5.377 7.969,-4.389 L 3.782,-4.174 C 2.012,-3.461 0.573,-1.976 0,0"
             style="fill:#00c63a;fill-opacity:1;fill-rule:nonzero;stroke:none"
             id="path8596" /></g><g
           id="g8598"
           transform="translate(382.7002,197.4248)"><path
             d="m 0,0 h -52.884 c -3.887,0 -6.865,-3.418 -6.383,-7.274 0.335,-2.684 0.857,-5.349 1.565,-7.978 l 3.018,-11.214 c 5.402,-20.066 -9.715,-39.79 -30.496,-39.79 h -10e-4 c -20.78,0 -35.897,19.724 -30.496,39.79 l 3.019,11.214 c 0.708,2.629 1.229,5.294 1.564,7.978 0.482,3.856 -2.495,7.274 -6.383,7.274 h -62.667 v -62.667 c 0,-3.887 -3.417,-6.864 -7.274,-6.383 -2.683,0.335 -5.349,0.857 -7.977,1.565 l -11.213,3.018 c -20.067,5.402 -39.792,-9.715 -39.792,-30.496 0,-20.781 19.725,-35.898 39.791,-30.496 l 11.214,3.018 c 2.628,0.708 5.294,1.229 7.977,1.564 3.857,0.481 7.274,-2.495 7.274,-6.382 v -62.668 h 169.789 c 11.122,0 20.138,9.017 20.138,20.139 V -9.782 C 9.783,-4.38 5.403,0 0,0"
             style="fill:#ff76aa;fill-opacity:1;fill-rule:nonzero;stroke:none"
             id="path8600" /></g><g
           id="g8602"
           transform="translate(229.022,322.8838)"><path
             d="m 0,0 -11.213,-3.019 c -2.629,-0.708 -5.294,-1.228 -7.977,-1.564 -3.857,-0.481 -7.275,2.496 -7.275,6.383 v 52.884 c 0,5.403 -4.38,9.783 -9.783,9.783 h -160.006 c -11.121,0 -20.137,-9.016 -20.137,-20.137 v -169.789 h 62.667 c 3.887,0 6.864,3.418 6.383,7.275 -0.336,2.683 -0.857,5.348 -1.564,7.977 l -3.02,11.213 c -5.401,20.067 9.716,39.792 30.496,39.792 20.782,0 35.899,-19.725 30.497,-39.791 l -3.018,-11.214 c -0.708,-2.629 -1.229,-5.294 -1.564,-7.977 -0.482,-3.857 2.495,-7.275 6.382,-7.275 h 62.667 v 62.667 c 0,3.887 3.418,6.863 7.275,6.382 2.683,-0.335 5.348,-0.857 7.977,-1.564 L 0,-60.992 c 20.067,-5.403 39.791,9.715 39.791,30.496 C 39.791,-9.715 20.067,5.402 0,0"
             style="fill:#60b9fe;fill-opacity:1;fill-rule:nonzero;stroke:none"
             id="path8604" /></g><g
           id="g8606"
           transform="translate(71.4936,376.6231)"><path
             d="m 0,0 c 0,4.685 2.728,8.754 6.667,10.728 h -45.393 c -11.121,0 -20.137,-9.017 -20.137,-20.138 V -179.198 H 0 Z"
             style="fill:#0094fd;fill-opacity:1;fill-rule:nonzero;stroke:none"
             id="path8608" /></g><g
           id="g8610"
           transform="translate(499.1137,333.065)"><path
             d="m 0,0 -45.472,156.898 c -3.096,10.683 -14.265,16.832 -24.947,13.736 l -153.682,-44.54 c -5.189,-1.504 -8.177,-6.929 -6.672,-12.119 l 14.72,-50.794 c 1.082,-3.733 5.194,-5.641 8.764,-4.105 2.484,1.069 4.899,2.311 7.227,3.723 l 9.93,6.02 c 17.769,10.775 40.923,1.746 46.707,-18.214 v 0 c 5.785,-19.96 -8.952,-39.97 -29.729,-40.367 l -11.611,-0.222 c -2.721,-0.053 -5.426,-0.294 -8.097,-0.719 -3.839,-0.611 -6.292,-4.422 -5.21,-8.155 l 15.653,-54.011 c 0.989,-3.413 4.557,-5.377 7.969,-4.388 l 54.012,15.654 c 3.733,1.082 7.545,-1.372 8.155,-5.211 0.425,-2.67 0.666,-5.376 0.719,-8.098 l 0.222,-11.61 c 0.397,-20.777 20.407,-35.514 40.366,-29.728 h 0.001 c 19.96,5.784 28.988,28.936 18.215,46.706 l -6.021,9.93 c -1.411,2.328 -2.654,4.743 -3.723,7.227 -1.537,3.57 0.372,7.682 4.105,8.763 L -4.388,-7.97 C -0.975,-6.98 0.989,-3.413 0,0 Z"
             style="fill:none;stroke:#000000;stroke-width:15;stroke-linecap:round;stroke-linejoin:round;stroke-miterlimit:10;stroke-dasharray:none;stroke-opacity:1"
             id="path8612" /></g><g
           id="g8614"
           transform="translate(176.0918,132.958)"><path
             d="m 0,0 11.213,-3.019 c 2.629,-0.708 5.294,-1.229 7.977,-1.564 3.857,-0.481 7.275,2.496 7.275,6.383 v 62.667 h -62.667 c -3.887,0 -6.864,3.418 -6.382,7.275 0.334,2.683 0.856,5.348 1.564,7.977 l 3.018,11.214 c 5.402,20.066 -9.715,39.791 -30.497,39.791 -20.78,0 -35.897,-19.725 -30.496,-39.792 l 3.019,-11.213 c 0.708,-2.629 1.229,-5.294 1.564,-7.977 0.482,-3.857 -2.495,-7.275 -6.382,-7.275 h -62.667 v -169.789 c 0,-11.121 9.016,-20.138 20.137,-20.138 H 26.465 v 62.668 c 0,3.887 -3.418,6.863 -7.275,6.382 -2.683,-0.335 -5.348,-0.857 -7.977,-1.565 L 0,-60.992 c -20.067,-5.403 -39.792,9.715 -39.792,30.496 C -39.792,-9.715 -20.067,5.401 0,0 Z"
             style="fill:none;stroke:#000000;stroke-width:15;stroke-linecap:round;stroke-linejoin:round;stroke-miterlimit:10;stroke-dasharray:none;stroke-opacity:1"
             id="path8616" /></g><g
           id="g8618"
           transform="translate(90.0937,387.3506)"><path
             d="m 0,0 h -57.326 c -11.121,0 -20.137,-9.016 -20.137,-20.137 v -169.789 h 62.667 c 3.887,0 6.864,3.418 6.382,7.276 -0.335,2.682 -0.856,5.347 -1.564,7.976 l -3.019,11.213 c -5.401,20.067 9.716,39.792 30.497,39.792 20.781,0 35.898,-19.725 30.497,-39.792 l -3.019,-11.213 c -0.707,-2.629 -1.229,-5.294 -1.564,-7.976 -0.482,-3.858 2.495,-7.276 6.382,-7.276 h 62.667 v 62.667 c 0,3.887 3.417,6.864 7.275,6.382 2.682,-0.335 5.348,-0.856 7.977,-1.563 l 11.213,-3.019 c 20.067,-5.402 39.791,9.715 39.791,30.496 0,20.781 -19.724,35.898 -39.791,30.496 l -11.213,-3.018 c -2.629,-0.708 -5.295,-1.229 -7.977,-1.565 -3.858,-0.481 -7.275,2.496 -7.275,6.383 V -9.783 C 112.463,-4.38 108.083,0 102.68,0 H 35"
             style="fill:none;stroke:#000000;stroke-width:15;stroke-linecap:round;stroke-linejoin:round;stroke-miterlimit:10;stroke-dasharray:none;stroke-opacity:1"
             id="path8620" /></g><g
           id="g8622"
           transform="translate(392.4824,119.9619)"><path
             d="m 0,0 v 67.681 c 0,5.402 -4.379,9.782 -9.783,9.782 h -52.884 c -3.887,0 -6.864,-3.418 -6.382,-7.275 0.335,-2.683 0.857,-5.348 1.564,-7.977 l 3.019,-11.214 c 5.401,-20.066 -9.716,-39.79 -30.496,-39.79 h -10e-4 c -20.781,0 -35.898,19.724 -30.496,39.79 l 3.019,11.214 c 0.708,2.629 1.229,5.294 1.564,7.977 0.481,3.857 -2.496,7.275 -6.383,7.275 h -62.667 V 14.796 c 0,-3.887 -3.417,-6.864 -7.275,-6.383 -2.682,0.335 -5.348,0.857 -7.977,1.565 l -11.213,3.018 c -20.067,5.402 -39.791,-9.715 -39.791,-30.496 0,-20.781 19.724,-35.898 39.791,-30.496 l 11.213,3.017 c 2.629,0.708 5.295,1.23 7.977,1.565 3.858,0.481 7.275,-2.495 7.275,-6.382 v -62.667 h 169.788 c 11.122,0 20.138,9.016 20.138,20.138 L 0,-35"
             style="fill:none;stroke:#000000;stroke-width:15;stroke-linecap:round;stroke-linejoin:round;stroke-miterlimit:10;stroke-dasharray:none;stroke-opacity:1"
             id="path8624" /></g></g></g></g></svg>
